# xmcd
#
# Track frame offsets: 
#        150
#        22650
#        42263
#        62213
#        78898
#        85724
#        104474
#        120974
#        137774
#        157949
#        175799
#
# Disc length: 2573 seconds
#
# Revision: 0
# Processed by: cddbd v1.5.2PL0 Copyright (c) Steve Scherf et al.
# Submitted via: ExactAudioCopy v0.95b4
#
DISCID=760a0b0b
DTITLE=Mike Bess - Northern Skies
DYEAR=2012
DGENRE=Blues
TTITLE0=Never give up on love
TTITLE1=Granny's eyes
TTITLE2=Lost love
TTITLE3=Lydia
TTITLE4=Sunday afternoon
TTITLE5=Falling into you
TTITLE6=Red House
TTITLE7=English Riviera
TTITLE8=Common sense
TTITLE9=Water of love
TTITLE10=Lonesome father Blues
EXTD=
EXTT0=
EXTT1=
EXTT2=
EXTT3=
EXTT4=
EXTT5=
EXTT6=
EXTT7=
EXTT8=
EXTT9=
EXTT10=
PLAYORDER=
